<?xml version="1.0" encoding="utf-8"?>
<!-- Generator: Adobe Illustrator 25.0.0, SVG Export Plug-In . SVG Version: 6.00 Build 0)  -->
<svg version="1.1" id="Layer_1" xmlns="http://www.w3.org/2000/svg" xmlns:xlink="http://www.w3.org/1999/xlink" x="0px" y="0px"
	 viewBox="0 0 2090 340" style="enable-background:new 0 0 2090 340;" xml:space="preserve">
<style type="text/css">
	.st0{fill:#3B3D3F;}
</style>
<g>
	<path class="st0" d="M1267.6,272.2c0,43.9-35.3,57-82.3,57c-15.8,0-18.9-1.5-29.6-3v-48.6c5,1,10,1.8,15.3,1.8
		c27.8,0,29.6-13,29.6-33.5V10.9h67.1V272.2z"/>
	<path class="st0" d="M1393.5,249.5c16.6,0,24.1-12.9,24.1-58.8c0-41.8-5-57.3-24.1-57.3c-19.1,0-24,15.5-24,57.3
		C1369.4,236.6,1376.8,249.5,1393.5,249.5 M1393.5,96.8c62.8,0,94,40,94,94c0,56.2-29.9,95.5-94,95.5c-64,0-93.9-39.3-93.9-95.5
		C1299.5,136.8,1330.7,96.8,1393.5,96.8"/>
	<path class="st0" d="M1518.1,101.1h67.3v24.2h0.8c14.1-18.4,35.3-28.4,59.4-28.4c27.1,0,44.5,15.8,44.5,40.7v144.9h-67.4V154.1
		c0-9.7-3.8-16.2-16.2-16.2c-7.1,0-12.9,2.5-17.5,7.5l-3.7,4.4v132.6h-67.3V101.1z"/>
	<path class="st0" d="M1836.8,170c-0.4-16.9-2-36.5-25.3-36.5c-19.2,0-25,19.5-25,36.5H1836.8z M1786.5,204.5
		c0,15.8,3.7,42.9,30.4,42.9c16.2,0,29.9-10.1,34.1-24.8l45.4,14.4c-2.9,8.3-23.8,49.4-83.6,49.4c-64.4,0-93.5-45.1-93.5-95.1
		c0-51.2,30.8-94.4,92.7-94.4c64.8,0,87.3,48.3,87.3,95.5v12.3H1786.5z"/>
	<path class="st0" d="M2039.3,156.5c-6.3-10.8-15-23.1-31.7-23.1c-13.6,0-19.9,5.8-19.9,11.6c0,29.2,102.3,19.8,102.3,79.6
		c0,38.9-34.1,61.6-83.6,61.6c-46.6,0-76.9-21.6-87.7-51.1l51.6-14.1c7.9,13.7,16.6,26.4,36.2,26.4c12.5,0,21.2-5.4,21.2-13.4
		c0-30.2-102.3-18.4-102.3-81c0-19.1,21.6-56.2,81.1-56.2c33.6,0,67.8,13.6,79.8,49L2039.3,156.5z"/>
	<path class="st0" d="M194.5,10.8H0.8v11.2h33.1v249.3H0v11.2h202.8l7.5-86.9H202l-0.3,1.2c-4.5,17.8-9.3,35.2-19.2,51.6
		c-13.7,22.8-25.9,22.8-62.1,22.8H78.5V150.8h10.2c35.6,0.4,44.8,6.5,46.3,51.3l0.1,1.5h9.2V89.8h-9.5l-0.1,1.5
		c-1.2,18.2-1.9,27.3-5.6,34c-7,13.2-21.8,13.6-38.8,13.9H78.5V21.9H107c35.4,0,54.8,0,69.8,25.4c0,0,8.2,18.3,8.2,18.3
		c0,0,6.1,22.2,6.1,22.2l1.2-0.1h7l-3.2-77H194.5z"/>
	<path class="st0" d="M294.9,275.4c-19.4,0-24.5-18.4-25.8-29.4c-1.2-9.6-1.6-24.5-1.2-44.3c0-7.6,0.2-32.9,1.9-44.3
		c3.2-24.5,18.6-27.2,25.1-27.2c17.6,0,27.7,15.9,31.3,22.8c9.2,16.6,10.5,34.6,10.5,50.2C336.6,260.3,309.3,275.4,294.9,275.4
		 M377,271.2V10.8h-1.6h-67v11.2h28.9v124.2c-5.8-9.9-19.7-28.1-46.4-28.1c-33.4,0-68.9,29.7-68.9,84.9c0,61.3,42.6,84.1,69.4,84.1
		c24.8,0,38.3-14.9,45.9-29.5v24.9h64.8v-11.2H377z"/>
	<path class="st0" d="M646.9,122.6h-60.7v11.1h25.7c-1.2,3.8-27.8,90.4-30.3,98.7c-2.7-7.7-17.8-50.3-17.8-50.3l-3-7.9l-18.7-51.5
		h-16.3c0,0-31.2,99.8-33.9,108.3c-2.5-7.3-12.8-37-12.8-37l-6.2-17.8c0,0-12.9-33.6-16.3-42.4h25.9v-11.1h-87.6v11.1h19.1
		c0.8,2.1,59.3,153.3,59.3,153.3h14.1c0,0,31-98.7,33.6-106.7c3,7.9,41.3,106.7,41.3,106.7h14.9c0,0,47.6-151,48.3-153.3h23v-11.1
		H646.9z"/>
	<path class="st0" d="M735.7,214.6c-0.8,20.3-1.8,32.3-13.2,43.3c-2.3,2.1-9.4,8.3-20.2,8.3c-10.4,0-22.4-6.6-22.4-25.1
		c0-30.7,29.9-38,55.8-38.5V214.6z M793.3,265.2l-2.6,2.3c-2.5,2.2-5.8,5.1-9.4,5.1c-6.9,0-7.2-6.6-7.2-20.4v-79.5
		c0-14.8,0-27.7-11.1-39.1c-9.9-9.6-28.3-15.7-46.8-15.7c-38.7,0-64.7,21.6-64.7,41.9c0,11.1,7.9,19.5,18.3,19.5
		c11.8,0,19.1-9.4,19.1-18c0-5.6-2.9-9.7-5.2-13l-2.7-5.3c0-4.2,12.4-14.3,29.6-14.3c23.2,0,24.2,15.5,25,26.8c0,0,0,34,0,36.8
		c-8.3,0.1-31.2,0.8-50.6,6.6c-28.1,8.7-44.1,26.6-44.1,49c0,23.3,17.9,38.9,44.5,38.9c21.6,0,39.5-10.8,50.2-29.1
		c0.9,6.8,2.5,14.9,10.5,21.5c6,4.8,14.4,7.6,23.1,7.6c16.6,0,25.7-9.1,29.6-13l1-1L793.3,265.2z"/>
	<path class="st0" d="M878.1,140.7c0,0-3.8,7.6-6.6,13.4v-31.6h-65.6v11.1h26.2v137.5h-25.9v11.2h89.9v-11.2h-24.7v-44.7
		c0.4-24.1,0.7-44.8,11.3-70.2c7.6-18.1,14.4-18.4,14.4-18.4c2,0,2.2,0,2.9,7.4c1.3,12.4,8.6,19.1,19.5,19.1
		c12.4,0,21.4-9,21.4-21.3c0-13.9-11.1-24-26.3-24C900.6,119.1,887.9,126.6,878.1,140.7"/>
	<path class="st0" d="M1018.6,275.4c-18.2,0-24.1-16-25.7-29.4c-1.6-12.1-1.5-30.7-1.2-44.3c0-7.6,0.2-32.9,1.9-44.3
		c3.1-24.5,18.5-27.2,25-27.2c17.6,0,27.7,15.9,31.3,22.8c9.2,16.6,10.5,34.6,10.5,50.2C1060.4,260.3,1033.1,275.4,1018.6,275.4
		 M1100.9,271.2V10.8h-1.6h-67v11.2h28.9v124.1c-5.8-9.8-19.7-28.1-46.4-28.1c-33.4,0-68.9,29.7-68.9,84.9
		c0,61.3,42.5,84.1,69.3,84.1c24.9,0,38.3-14.9,46-29.5v24.9h64.8v-11.2H1100.9z"/>
</g>
</svg>
